<svg width="24" height="25" viewBox="0 0 24 25" fill="none" xmlns="http://www.w3.org/2000/svg">
<path fill-rule="evenodd" clip-rule="evenodd" d="M18.3905 4.81716C16.5763 3.00113 14.1665 2.00183 11.6029 2.00183C6.30855 2.00183 2.00195 6.31227 2.00195 11.6105C2.00195 16.9087 6.30855 21.2191 11.6029 21.2191C14.1665 21.2191 16.5783 20.2198 18.3905 18.4038C20.2046 16.5878 21.202 14.176 21.202 11.6105C21.202 9.04497 20.2046 6.63128 18.3905 4.81716ZM14.9148 11.6585C15.6787 12.3417 16.0218 13.1804 15.9513 14.1968C15.8865 15.1571 15.2644 15.9793 14.2611 16.5276C13.462 16.9694 12.4129 17.228 11.4473 17.228H11.3791C9.86898 17.2098 8.48068 16.5542 7.36489 15.353L7.14326 15.1166L7.38095 14.8938L7.72696 14.5729L7.96349 14.3585L8.18268 14.5924C9.0775 15.5525 10.111 16.0551 11.2595 16.1038H11.4262C11.8054 16.1038 12.2776 15.9955 12.6496 15.7925C13.0274 15.5863 13.2421 15.3194 13.2461 15.0224L13.2461 15.021C13.2568 14.4692 13.0216 14.0943 12.613 13.7795C12.1891 13.4529 11.5974 13.2057 10.9172 12.9239L10.8938 12.9151L10.8864 12.9114L10.8696 12.9045C10.1237 12.5961 9.287 12.2503 8.64372 11.7085C7.97845 11.1482 7.51805 10.3776 7.53664 9.24321C7.55163 8.27984 8.09768 7.41755 9.02217 6.80597C9.79385 6.29556 10.8028 5.99356 11.7279 5.99356H11.7807C11.8299 5.99164 11.8764 5.99164 11.9146 5.99164H11.9162C11.9861 5.99164 12.0551 5.99357 12.1225 6.00013C13.5331 6.0962 14.6839 6.71466 15.7271 7.91078L15.9411 8.15432L15.6963 8.36945L15.3405 8.67883L15.0939 8.88804L14.8859 8.64288C14.0161 7.64986 13.147 7.18992 12.0492 7.11552C12.0039 7.11363 11.9615 7.11201 11.9201 7.11201C11.5538 7.11201 11.1579 7.21088 10.8674 7.37056C10.6028 7.51506 10.335 7.75416 10.3072 8.12238C10.2716 8.6685 10.4978 9.05595 10.9124 9.395C11.3397 9.74446 11.9445 10.0235 12.6366 10.3396L12.6423 10.3415L12.6701 10.3542C13.4385 10.7043 14.2722 11.0842 14.9148 11.6585ZM11.7985 16.9762C11.6806 16.9839 11.5634 16.9878 11.4473 16.9878L11.4473 16.9878L11.382 16.9878C11.382 16.9878 11.382 16.9878 11.382 16.9878M12.4415 16.1508C13.002 15.9388 13.4791 15.5566 13.4863 15.0257C13.5113 13.7386 12.3513 13.258 11.0067 12.701L11.0067 12.701C12.3513 13.258 13.5113 13.7386 13.4863 15.0257C13.4791 15.5566 13.0019 15.9388 12.4415 16.1508ZM10.9786 12.6896C9.46039 12.062 7.74231 11.3517 7.77684 9.24705C7.7903 8.38035 8.28034 7.58475 9.15473 7.00631C9.47453 6.79479 9.83832 6.62066 10.2198 6.49161C9.83831 6.62066 9.47451 6.79479 9.1547 7.00631C8.28032 7.58475 7.79027 8.38035 7.77682 9.24705C7.74229 11.3517 9.46036 12.062 10.9786 12.6896L10.9786 12.6896ZM11.9201 6.87179C11.9681 6.87179 12.0162 6.87371 12.0623 6.87564C12.1357 6.88056 12.2081 6.88712 12.2796 6.89535C12.2081 6.88712 12.1357 6.88056 12.0623 6.87564C12.0162 6.87371 11.9681 6.87179 11.9201 6.87179C11.9201 6.87179 11.9201 6.87179 11.9201 6.87179ZM13.1418 7.09115C13.8395 7.33695 14.4585 7.78999 15.0679 8.48604L15.1217 8.54946L15.1217 8.54945L15.0679 8.48604C14.4585 7.78998 13.8395 7.33695 13.1418 7.09115ZM11.9162 6.23186C11.8759 6.23186 11.8317 6.23186 11.7856 6.23378H11.7856C11.8317 6.23186 11.8759 6.23186 11.9162 6.23186ZM12.2987 11.1342C11.5819 10.8094 10.8401 10.4731 10.2924 10.0042C9.66591 9.46997 9.38725 8.83196 9.44298 8.05366C9.45451 7.85572 9.50064 7.66739 9.58327 7.48675C9.55829 7.50212 9.53523 7.51749 9.51217 7.53287C8.81458 7.996 8.42639 8.60711 8.4187 9.25281C8.39372 10.9324 9.77544 11.5012 11.2379 12.1027L11.2556 12.11C11.9534 12.3979 12.6722 12.6945 13.2153 13.1309C13.8418 13.6344 14.1397 14.2551 14.1282 15.0315C14.1224 15.2621 14.0686 15.4792 13.9706 15.6791C14.476 15.3774 15.0314 14.8777 15.0794 14.1302C15.1313 13.3749 14.8872 12.7869 14.3107 12.2795C13.7914 11.8215 13.0753 11.4916 12.3185 11.1429L12.3121 11.14L12.2987 11.1342Z" fill="#B2BFCD"/>
</svg>
